<svg xmlns="http://www.w3.org/2000/svg" class="icon" viewBox="0 0 1024 1024" width="24" height="24" t="1585276367124" p-id="5714" version="1.1"><path d="M 713.728 285.696 l 97.28 -97.28 l -97.28 -97.28 c -8.192 -8.192 -8.192 -20.48 0 -28.672 s 20.48 -8.192 28.672 0 l 97.28 97.28 l 97.28 -97.28 c 8.192 -8.192 20.48 -8.192 28.672 0 s 8.192 20.48 0 28.672 l -97.28 97.28 l 97.28 97.28 c 8.192 8.192 8.192 20.48 0 28.672 c -4.096 4.096 -9.216 6.144 -14.336 6.144 s -10.24 -2.048 -14.336 -6.144 L 839.68 217.088 l -97.28 97.28 c -4.096 4.096 -9.216 6.144 -14.336 6.144 s -10.24 -2.048 -14.336 -6.144 c -8.192 -8.192 -8.192 -20.48 0 -28.672 Z M 71.68 204.8 h 593.92 c 11.264 0 20.48 -9.216 20.48 -20.48 s -9.216 -20.48 -20.48 -20.48 H 71.68 c -11.264 0 -20.48 9.216 -20.48 20.48 s 9.216 20.48 20.48 20.48 Z m 0 256 h 880.64 c 11.264 0 20.48 -9.216 20.48 -20.48 s -9.216 -20.48 -20.48 -20.48 H 71.68 c -11.264 0 -20.48 9.216 -20.48 20.48 s 9.216 20.48 20.48 20.48 Z m 880.64 471.04 H 71.68 c -11.264 0 -20.48 9.216 -20.48 20.48 s 9.216 20.48 20.48 20.48 h 880.64 c 11.264 0 20.48 -9.216 20.48 -20.48 s -9.216 -20.48 -20.48 -20.48 Z m 0 -256 H 71.68 c -11.264 0 -20.48 9.216 -20.48 20.48 s 9.216 20.48 20.48 20.48 h 880.64 c 11.264 0 20.48 -9.216 20.48 -20.48 s -9.216 -20.48 -20.48 -20.48 Z" p-id="5715" /></svg>
