<svg xmlns="http://www.w3.org/2000/svg" class="icon" viewBox="0 0 1024 1024" width="20" height="20" t="1585154356113" p-id="3719" version="1.1"><path fill="" d="M 912.291 158.255 v -148.945 H 0 v 875.055 h 130.327 v 130.327 h 893.673 v -856.436 h -111.709 Z m -875.055 688.873 v -800.582 h 837.818 v 111.709 H 130.327 v 688.873 H 37.2364 Z m 949.527 130.327 H 167.564 v -781.964 h 819.2 v 781.964 Z" p-id="3720" /><path fill="" d="M 735.139 428.497 a 18.5996 18.5996 0 0 0 -26.3261 0 L 577.164 560.147 l -131.649 -131.649 a 18.5996 18.5996 0 1 0 -26.3261 26.3261 l 131.649 131.649 l -131.649 131.649 a 18.5996 18.5996 0 1 0 26.3261 26.3261 L 577.164 612.799 l 131.649 131.649 a 18.5623 18.5623 0 0 0 26.3261 0 a 18.5996 18.5996 0 0 0 0 -26.3261 L 603.49 586.473 l 131.649 -131.649 a 18.5996 18.5996 0 0 0 0 -26.3261 Z" p-id="3721" /></svg>
