<svg xmlns="http://www.w3.org/2000/svg" class="icon" viewBox="0 0 1024 1024" width="20" height="20" t="1585154587745" p-id="1120" version="1.1"><path fill="" d="M 782.426 824.925 l -584.588 -584.727 c -11.987 -11.9901 -11.985 -31.4278 0.005116 -43.4148 c 11.9901 -11.987 31.4278 -11.985 43.4148 0.005117 l 584.588 584.727 c 11.987 11.9901 11.985 31.4278 -0.005116 43.4148 c -11.9891 11.988 -31.4278 11.985 -43.4148 -0.005116 Z" p-id="1121" /><path fill="" d="M 197.768 824.856 c -11.987 -11.9901 -11.985 -31.4278 0.005117 -43.4148 l 584.727 -584.589 c 11.9901 -11.987 31.4278 -11.985 43.4148 0.005117 c 11.987 11.9901 11.985 31.4278 -0.005116 43.4148 l -584.727 584.589 c -11.9901 11.987 -31.4278 11.985 -43.4148 -0.005117 Z" p-id="1122" /></svg>
