<svg xmlns="http://www.w3.org/2000/svg" class="icon" viewBox="0 0 1170 1024" width="24" height="24" t="1585298207797" p-id="3392" version="1.1"><path d="M 1121.52 1024 H 48.7619 a 48.7619 48.7619 0 0 1 -48.7619 -48.7619 V 48.7619 a 48.7619 48.7619 0 0 1 48.7619 -48.7619 h 512 a 48.7619 48.7619 0 0 1 48.7619 48.7619 l 30.4762 97.5238 H 1121.52 a 48.7619 48.7619 0 0 1 48.7619 48.7619 v 780.19 a 48.7619 48.7619 0 0 1 -48.7619 48.7619 Z M 1097.14 195.048 H 597.333 L 560.762 73.1429 a 24.381 24.381 0 0 0 -24.381 -24.381 H 73.1429 a 24.381 24.381 0 0 0 -24.381 24.381 v 877.714 a 24.381 24.381 0 0 0 24.381 24.381 h 1024 a 24.381 24.381 0 0 0 24.381 -24.381 V 341.333 H 609.524 a 24.381 24.381 0 0 1 0 -48.7619 h 512 V 219.429 a 24.381 24.381 0 0 0 -24.381 -24.381 Z" p-id="3393" /></svg>
