<svg xmlns="http://www.w3.org/2000/svg" class="icon" viewBox="0 0 1024 1024" width="24" height="24" t="1585298069209" p-id="2217" version="1.1"><path fill="" d="M 725.333 375.467 h -426.667 a 17.0667 17.0667 0 1 0 0 34.1333 h 426.667 a 17.0667 17.0667 0 1 0 0 -34.1333 Z M 298.667 273.067 h 170.667 a 17.0667 17.0667 0 1 0 0 -34.1333 h -170.667 a 17.0667 17.0667 0 1 0 0 34.1333 Z M 725.333 512 h -426.667 a 17.0667 17.0667 0 1 0 0 34.1333 h 426.667 a 17.0667 17.0667 0 1 0 0 -34.1333 Z M 725.333 648.533 h -426.667 a 17.0667 17.0667 0 1 0 0 34.1333 h 426.667 a 17.0667 17.0667 0 1 0 0 -34.1333 Z M 725.333 785.067 h -426.667 a 17.0667 17.0667 0 1 0 0 34.1333 h 426.667 a 17.0667 17.0667 0 1 0 0 -34.1333 Z" p-id="2218" /><path fill="" d="M 664.132 0 H 110.933 v 1024 h 802.133 V 248.934 L 664.132 0 Z m 10.0011 58.2656 L 854.801 238.933 H 674.133 V 58.2656 Z M 145.067 989.867 V 34.1333 h 494.933 v 238.933 h 238.933 v 716.8 h -733.867 Z" p-id="2219" /></svg>
