<svg xmlns="http://www.w3.org/2000/svg" xmlns:xlink="http://www.w3.org/1999/xlink" viewBox="0 0 96 96"><defs><style>.a{clip-path:url(#b);}.b{fill:#9c27b0;}.c{fill:#ce93d8;}.d{fill:#7b1fa2;}</style><clipPath id="b"><rect width="96" height="96"/></clipPath></defs><g id="a" class="a"><path class="b" d="M-213.917-129.314h0l-5.734-5.734a16.206,16.206,0,0,0,2.534-2.068,15.9,15.9,0,0,0,4.686-11.313,15.9,15.9,0,0,0-4.686-11.315,16.246,16.246,0,0,0-2.143-1.8l5.714-5.714a24.365,24.365,0,0,1,2.086,1.86,23.916,23.916,0,0,1,5.143,7.629,23.839,23.839,0,0,1,1.886,9.342,23.837,23.837,0,0,1-1.886,9.341,23.921,23.921,0,0,1-5.143,7.628,24.319,24.319,0,0,1-2.455,2.146Zm-29.222-.149h0a24.342,24.342,0,0,1-2.262-2,23.914,23.914,0,0,1-5.144-7.628,23.852,23.852,0,0,1-1.885-9.341,23.854,23.854,0,0,1,1.885-9.342A23.916,23.916,0,0,1-245.4-165.4a24.393,24.393,0,0,1,1.9-1.707l5.7,5.7a16.265,16.265,0,0,0-1.944,1.66,15.9,15.9,0,0,0-4.685,11.315,15.9,15.9,0,0,0,4.685,11.313,16.231,16.231,0,0,0,2.33,1.931l-5.723,5.723Z" transform="translate(276.431 196.431)"/><path class="c" d="M-202.541-117.938h0l-5.679-5.679A32.58,32.58,0,0,0-205.8-125.8a31.91,31.91,0,0,0,6.858-10.172,31.8,31.8,0,0,0,2.515-12.456,31.8,31.8,0,0,0-2.515-12.456,31.9,31.9,0,0,0-6.858-10.171c-.658-.658-1.351-1.294-2.058-1.889l5.674-5.674c.7.61,1.387,1.251,2.04,1.905A39.861,39.861,0,0,1-191.575-164a39.741,39.741,0,0,1,3.144,15.57,39.748,39.748,0,0,1-3.144,15.57,39.861,39.861,0,0,1-8.572,12.714c-.767.767-1.572,1.51-2.393,2.209Zm-51.966-.158h0c-.755-.651-1.5-1.341-2.208-2.051a39.878,39.878,0,0,1-8.573-12.714,39.763,39.763,0,0,1-3.143-15.57A39.756,39.756,0,0,1-265.289-164a39.878,39.878,0,0,1,8.573-12.714c.6-.6,1.225-1.187,1.858-1.745l5.671,5.671c-.639.545-1.268,1.127-1.872,1.731a31.888,31.888,0,0,0-6.858,10.171,31.8,31.8,0,0,0-2.515,12.456,31.8,31.8,0,0,0,2.515,12.456,31.9,31.9,0,0,0,6.858,10.172c.711.711,1.461,1.394,2.229,2.031l-5.676,5.676Z" transform="translate(276.431 196.431)"/><rect class="d" width="16" height="16" rx="8" transform="translate(40 40)"/></g></svg>