<svg width="256" height="256" xmlns="http://www.w3.org/2000/svg">
 <g>
  <title>Layer 1</title>
  <path d="m39.103317,51.70406c-44.705022,46.547054 -44.002368,122.325848 1.552029,167.397671l7.240883,7.164093l7.897686,-7.959595l7.898827,-7.95842l-6.783524,-7.251205c-12.2225,-13.067291 -20.185524,-27.309479 -24.798042,-44.353119c-3.331017,-12.307327 -3.331017,-36.048523 0,-48.35585c4.52655,-16.72612 12.448311,-31.048553 24.184799,-43.724968l6.260834,-6.762894l-7.989388,-7.989388l-7.989388,-7.989384l-7.474716,7.783058m160.276001,0.090557l-7.723465,7.781906l4.157486,3.967186c11.689484,11.151894 22.44133,29.666176 26.970184,46.439308c3.436462,12.729134 3.485748,36.260574 0.103149,48.760468c-4.666397,17.240799 -12.644302,31.423386 -25.126999,44.669479l-7.111374,7.544647l7.96991,7.909134l7.969894,7.908005l7.49765,-7.418549c45.799683,-45.317123 46.635315,-120.977859 1.852341,-167.607437c-4.08754,-4.254894 -7.747528,-7.737209 -8.133804,-7.737209c-0.386292,0 -4.178101,3.501804 -8.424973,7.783062m-35.035233,33.888977l-8.218628,8.274796l6.124435,6.322731c19.318954,19.945953 19.033524,49.38633 -0.669418,69.143135l-6.757172,6.775528l8.500626,8.50061l8.50061,8.499451l6.848862,-6.743393c8.435272,-8.304626 14.164246,-17.559464 18.294205,-29.550415c2.726929,-7.919479 3.153351,-10.940979 3.153351,-22.340485c0,-11.399475 -0.426422,-14.42215 -3.155655,-22.351929c-4.516235,-13.123451 -12.82428,-25.971802 -20.654327,-31.943779l-3.748245,-2.859909l-8.218643,8.273659m-89.790596,-1.433968c-7.353218,7.8312 -12.708511,16.899216 -16.523239,27.975464c-2.726936,7.919456 -3.153343,10.940987 -3.153343,22.340462c0,11.399506 0.426407,14.422165 3.15564,22.351944c4.580421,13.307999 12.828857,25.975235 20.947769,32.167313l4.041695,3.08342l8.308044,-8.251877l8.308044,-8.253021l-6.488945,-6.507278c-19.30748,-19.362518 -19.591759,-49.060791 -0.656799,-68.61129l5.869965,-6.060242l-8.097137,-8.042114c-4.453186,-4.423393 -8.575111,-8.043251 -9.158562,-8.043251c-0.583443,0 -3.531609,2.632935 -6.553131,5.850471m43.202293,28.417915c-19.271965,8.922432 -18.767616,36.006104 0.822998,44.189209c15.316238,6.397232 32.941025,-5.529526 32.941025,-22.291199c0,-17.163986 -18.322861,-29.047203 -33.764023,-21.89801" fill-rule="evenodd" fill="black" id="svg_1"/>
 </g>
</svg>
