<svg xmlns="http://www.w3.org/2000/svg" class="icon" viewBox="0 0 1024 1024" width="24" height="24" t="1585298142441" p-id="2506" version="1.1"><path fill="#040000" d="M 644.835 122.919 c -8.21385 0.117405 -15.0279 6.69888 -14.9105 14.9105 v 119.286 c 0 24.5196 20.2118 44.7337 44.7337 44.7337 h 119.288 c 19.9183 0.291255 19.2793 -29.8209 0 -29.8209 h -119.288 c -8.5322 0 -14.9105 -6.37827 -14.9105 -14.9105 V 137.829 c 0.115148 -8.38545 -6.49567 -15.0256 -14.9127 -14.9105 Z M 197.51 63.2747 c -24.5219 0 -44.7337 20.2118 -44.7337 44.7337 v 805.188 c 0 24.5196 20.2118 44.7337 44.7337 44.7337 h 626.256 c 24.5196 0 44.7337 -20.2118 44.7337 -44.7337 V 286.939 a 14.8924 14.8924 0 0 0 -4.36883 -10.5416 L 655.377 67.6435 a 14.8405 14.8405 0 0 0 -10.5416 -4.36883 H 197.51 Z m 0 29.8232 H 638.662 l 200.016 200.016 v 620.083 c 0 8.5322 -6.37827 14.9105 -14.9105 14.9105 H 197.51 c -8.5322 0 -14.9105 -6.37601 -14.9105 -14.9105 V 108.008 c 0 -8.5322 6.37827 -14.9105 14.9105 -14.9105 Z" p-id="2507" /></svg>
