<svg xmlns="http://www.w3.org/2000/svg" class="icon" viewBox="0 0 1024 1024" width="24" height="24" t="1585276248756" p-id="4873" version="1.1"><path d="M 386.987 768 H 256 v -128 a 42.6667 42.6667 0 0 0 -85.3333 0 v 128 H 42.6667 a 42.6667 42.6667 0 0 0 0 85.3333 h 128 v 128 a 42.6667 42.6667 0 0 0 85.3333 0 v -128 h 130.987 a 42.6667 42.6667 0 1 0 0 -85.3333 M 1024 256 v 512 c 0 47.1467 -38.8267 85.3333 -85.9733 85.3333 h -384 a 42.6667 42.6667 0 0 1 0 -85.3333 h 341.333 c 23.5947 0 43.3067 -19.072 43.3067 -42.6667 V 280.619 A 25.1733 25.1733 0 0 0 913.451 256 h -290.731 a 85.3333 85.3333 0 0 1 -76.672 -47.7867 l -48.4267 -98.9867 a 42.6667 42.6667 0 0 0 -38.3147 -23.8933 h -161.28 A 42.1547 42.1547 0 0 0 256 128 v 341.333 a 42.6667 42.6667 0 0 1 -85.3333 0 V 103.424 A 103.211 103.211 0 0 1 273.451 0 h 203.264 a 85.3333 85.3333 0 0 1 76.3307 47.1893 l 38.1867 76.288 A 85.248 85.248 0 0 0 667.563 170.667 h 270.464 C 985.173 170.667 1024 208.853 1024 256" p-id="4874" /></svg>
