<svg xmlns="http://www.w3.org/2000/svg" class="icon" viewBox="0 0 1024 1024" width="20" height="20" t="1585153941508" p-id="2974" version="1.1"><path d="M 813.979 321.3 c -7.83341 -8.83011 -21.337 -9.66103 -30.1937 -1.82763 c -8.84648 7.82829 -9.66103 21.3472 -1.82763 30.1937 c 75.8024 85.5996 108.169 199.251 88.7841 311.805 c -35.0401 203.334 -229.068 340.245 -432.299 305.227 c -203.34 -35.0401 -340.266 -228.964 -305.227 -432.299 c 16.9715 -98.4973 71.2856 -184.494 152.932 -242.144 c 79.7503 -56.3054 176.262 -78.9082 272.512 -64.0866 l -132.426 105.601 c -9.23227 7.36269 -10.7468 20.8202 -3.38407 30.0576 c 4.21909 5.29459 10.4439 8.0524 16.7311 8.0524 c 4.67856 0 9.38883 -1.52473 13.3265 -4.66832 l 193.454 -154.263 L 492.083 19.4889 C 484.731 10.2515 471.258 8.73187 462.026 16.1048 c -9.23227 7.36269 -10.7468 20.8202 -3.38407 30.0576 L 570.732 186.716 c -109.095 -18.2517 -218.838 6.75177 -309.251 70.5948 c -90.9883 64.2411 -151.512 160.065 -170.426 269.821 c -18.9087 109.767 6.05183 220.317 70.2929 311.304 c 64.2411 90.9781 160.07 151.5 269.826 170.415 a 417.581 417.581 0 0 0 71.0195 6.09891 c 199.094 0 375.775 -143.49 410.7 -346.208 c 21.6081 -125.424 -14.444 -252.067 -98.9148 -347.442 Z" p-id="2975" /></svg>