<svg xmlns="http://www.w3.org/2000/svg" class="icon" viewBox="0 0 1024 1024" width="24" height="24" t="1585276612930" p-id="8791" version="1.1"><path fill="#525252" d="M 816.84 870.625 H 196.837 c -47.2829 0 -78.9711 -37.6932 -78.9711 -84.9663 V 239.852 c 0 -47.2672 31.6921 -86.4808 78.9711 -86.4808 h 228.907 a 24.7068 24.7068 0 0 1 24.022 18.9112 l 25.3662 104.756 H 816.85 c 47.2731 0 92.4701 39.2077 92.4701 86.4788 V 785.66 c 0 47.2731 -45.199 84.9663 -92.4799 84.9663 Z M 205.037 212.071 c -19.2986 0 -28.4734 16.436 -28.4734 35.717 v 529.873 c 0 19.3123 9.17481 34.2612 28.4734 34.2612 h 603.984 c 19.2869 0 41.497 -14.9489 41.497 -34.2612 V 371.626 c 0 -19.2849 -22.2101 -35.7209 -41.5068 -35.7209 H 446.85 a 23.8459 23.8459 0 0 1 -23.1924 -18.2459 l -24.474 -105.588 H 205.039 Z m 626.851 6.26916 H 536.187 c -17.4339 0 -29.35 -14.3991 -29.35 -29.35 c 0 -15.4381 12.4953 -29.35 29.35 -29.35 h 299.939 c 16.8782 0 29.3383 13.6967 29.3383 29.35 c 0 15.4107 -12.5422 29.35 -29.3383 29.35 h -4.23814 Z" p-id="8792" /></svg>
